<svg xmlns="http://www.w3.org/2000/svg" viewBox="0 0 1024 512" role="img" aria-label="PunPun logo">
  <defs>
    <linearGradient id="g" x1="100" y1="80" x2="450" y2="450" gradientUnits="userSpaceOnUse">
      <stop offset="0" stop-color="#6EE7FF"/><stop offset=".5" stop-color="#7C5CFF"/><stop offset="1" stop-color="#FF4FA3"/>
    </linearGradient>
  </defs>
  <rect x="40" y="40" width="432" height="432" rx="104" fill="#0B1020"/>
  <path d="M128 124h92c66 0 109 35 109 89 0 40-23 70-64 83l73 90h-71l-65-81h-13v81h-61V124Zm61 55v74h29c32 0 50-13 50-37 0-24-18-37-50-37h-29Z" fill="url(#g)"/>
  <path d="M298 124h42c47 0 81 20 95 53 8 20 9 42 4 62-8 27-27 49-56 60l58 71-47 38-78-98 29-43c25-7 39-22 39-44 0-28-19-44-52-44h-34v-55Z" fill="#F8FAFF" fill-opacity=".92"/>
  <path d="m220 310 40-63 40 63-40 74-40-74Z" fill="#6EE7FF"/>
  <text x="520" y="280" font-family="Inter, ui-sans-serif, system-ui, sans-serif" font-weight="760" font-size="132" letter-spacing="-6" fill="#111827">PunPun</text>
  <text x="526" y="342" font-family="Inter, ui-sans-serif, system-ui, sans-serif" font-weight="520" font-size="31" letter-spacing="2" fill="#4B5563">NATIVE • FAST • EXPLICIT</text>
</svg>
